<svg width="496" height="105" viewBox="0 0 496 105" fill="none" xmlns="http://www.w3.org/2000/svg">
<path d="M318.613 72.5188L291.631 3.02845C291.407 2.4515 290.852 2.07138 290.233 2.07138H280.358C279.74 2.07138 279.184 2.45111 278.96 3.02762L241.064 100.456C240.682 101.439 241.407 102.5 242.462 102.5H252.911C253.532 102.5 254.088 102.117 254.311 101.538L265.603 72.1387C265.678 71.9455 265.863 71.818 266.07 71.818H303.982C304.189 71.818 304.374 71.9446 304.449 72.1369L315.874 101.543C316.098 102.12 316.653 102.5 317.272 102.5H320.113H328.063H329.627C330.456 102.5 331.127 101.828 331.127 101V41.9229C331.127 36.6343 331.037 31.5709 330.856 26.7327C330.856 26.7327 330.856 26.7326 330.856 26.7325L318.613 72.5188ZM318.613 72.5188V3.97776C318.613 3.14934 319.285 2.47776 320.113 2.47776H336.98C337.499 2.47776 337.98 2.74553 338.254 3.18588L368.355 51.61L398.996 3.17582C399.271 2.74122 399.749 2.47776 400.263 2.47776H417C417.828 2.47776 418.5 3.14934 418.5 3.97776V101C418.5 101.828 417.828 102.5 417 102.5H406.673C405.845 102.5 405.173 101.828 405.173 101V41.1101C405.173 36.2709 405.286 31.4991 405.512 26.7949C405.713 22.6212 405.896 19.124 406.061 16.3036L373.814 69.7746C373.543 70.2247 373.056 70.4999 372.53 70.4999H363.369C362.839 70.4999 362.349 70.2211 362.079 69.7661L330.277 16.2423L318.613 72.5188ZM173.875 96.4366L173.875 96.4363C180.422 91.4111 183.689 84.4175 183.689 75.5173C183.689 70.2599 182.615 65.8722 180.431 62.3861C178.306 58.8771 175.197 55.8673 171.124 53.3504L171.122 53.3491C167.023 50.8438 162.069 48.5501 156.266 46.4647C150.952 44.5282 146.737 42.6657 143.611 40.8792C140.495 39.0989 138.313 37.1418 137.016 35.0242L137.016 35.0242L137.012 35.018C135.676 32.9048 134.99 30.227 134.99 26.9544C134.99 22.7563 136.491 19.4237 139.485 16.9066L139.486 16.9062C142.521 14.348 147.059 13.0278 153.184 13.0278C157.387 13.0278 161.5 13.5419 165.523 14.57L165.523 14.5701L165.529 14.5716C167.356 15.0132 168.294 15.3004 169.069 15.6091C169.566 15.8073 169.991 16.0112 170.544 16.2767C170.873 16.4343 171.246 16.6137 171.707 16.8265C172.501 17.1926 173.428 16.7949 173.726 15.9835L176.964 7.16295C177.236 6.42093 176.886 5.58795 176.151 5.27613C172.74 3.82859 170.013 2.997 168.4 2.62595C163.842 1.57774 158.86 1.05542 153.455 1.05542C140.529 1.05542 131.158 5.02035 125.481 13.0509C122.705 16.938 121.325 21.5349 121.325 26.8189C121.325 34.5902 123.476 40.7982 127.829 45.3828L127.832 45.3865C132.194 49.8856 138.659 53.6439 147.188 56.6837C153.091 58.892 157.739 60.9143 161.142 62.7499L161.146 62.7523C164.533 64.5344 166.865 66.5133 168.201 68.6678C169.496 70.7839 170.158 73.4194 170.158 76.601C170.158 81.3717 168.331 85.1276 164.668 87.9192C160.997 90.672 155.59 92.0854 148.375 92.0854C143.131 92.0854 138.046 91.4803 133.119 90.2711C128.882 89.2214 125.242 88.09 122.196 86.8785C121.209 86.4862 120.105 87.199 120.105 88.2825V98.047C120.105 98.6254 120.439 99.1616 120.978 99.402C124.084 100.786 127.863 101.859 132.305 102.628L132.306 102.628C137.079 103.446 142.232 103.855 147.765 103.855C158.674 103.855 167.395 101.4 173.875 96.4366ZM281.294 30.4487L281.294 30.4487L281.299 30.4354C281.844 28.8433 282.502 26.69 283.27 23.9788C283.754 22.3656 284.222 20.7207 284.674 19.0441C284.811 18.5358 285.512 18.5475 285.653 19.0187C285.795 19.4916 285.945 19.9945 286.103 20.5273L286.106 20.5366C286.784 22.6589 287.416 24.6234 288.003 26.4301C288.319 27.4242 288.591 28.2614 288.818 28.9413L288.821 28.9513C289.047 29.5842 289.229 30.0836 289.365 30.4484C289.366 30.4485 289.366 30.4487 289.366 30.4488L299.974 59.1043C300.095 59.4308 299.853 59.7779 299.505 59.7779H271.025C270.676 59.7779 270.434 59.4293 270.557 59.1024L281.294 30.4487ZM491.682 47.6393L491.683 47.6377C494.159 42.8241 495.396 37.643 495.396 32.1019C495.396 22.7306 492.396 15.423 486.35 10.2527C480.301 5.03469 470.717 2.47776 457.712 2.47776H432.5C431.672 2.47776 431 3.14934 431 3.97776V101C431 101.828 431.672 102.5 432.5 102.5H442.962C443.791 102.5 444.462 101.828 444.462 101V64.4612C444.462 64.1851 444.686 63.9612 444.962 63.9612H455.341C465.271 63.9612 473.193 62.489 479.07 59.5045L479.073 59.5031C484.925 56.4855 489.142 52.5351 491.682 47.6393ZM262.475 2.47776H188C187.172 2.47776 186.5 3.14934 186.5 3.97776V12.9501C186.5 13.7786 187.172 14.4501 188 14.4501H210.953C211.229 14.4501 211.453 14.674 211.453 14.9501V101C211.453 101.828 212.124 102.5 212.953 102.5H223.415C224.244 102.5 224.915 101.828 224.915 101V14.9501C224.915 14.674 225.139 14.4501 225.415 14.4501H258.577C259.174 14.4501 259.715 14.0957 259.953 13.5479L263.851 4.5755C264.281 3.58487 263.555 2.47776 262.475 2.47776ZM444.962 14.1115H456.628C465.255 14.1115 471.511 15.6874 475.491 18.7489C479.449 21.7934 481.459 26.393 481.459 32.6438C481.459 39.8501 479.197 44.8555 474.775 47.8045C470.291 50.7499 463.387 52.2598 453.987 52.2598H444.962C444.686 52.2598 444.462 52.0359 444.462 51.7598V14.6115C444.462 14.3353 444.686 14.1115 444.962 14.1115Z" fill="white" stroke="white"/>
<path d="M109.05 2.20328C109.604 1.54082 109.133 0.53325 108.27 0.53325H91.8103C91.506 0.53325 91.2176 0.669506 91.0243 0.904632L68.5374 28.2606C68.2134 28.6548 68.2314 29.2279 68.5795 29.6009L77.0629 38.6927C77.4803 39.14 78.1952 39.1205 78.5876 38.6511L109.05 2.20328ZM20.102 0.857515C19.9095 0.650714 19.6397 0.53325 19.3572 0.53325H2.34163C1.45193 0.53325 0.964642 1.56671 1.57173 2.21711C9.14591 10.3317 41.7181 45.2278 46.6662 50.5304C47.0207 50.9102 47.0311 51.446 46.6913 51.8391C41.9057 57.3748 10.0574 94.2117 2.8917 102.5C2.32181 103.159 2.81524 104.154 3.68659 104.154H20.0809C20.3765 104.154 20.6378 104.048 20.8311 103.824C23.9283 100.24 51.3445 68.5179 56.3647 62.7007C56.7612 62.2412 57.4521 62.23 57.8647 62.675C63.2009 68.4302 92.8178 100.409 96.0078 103.853C96.2004 104.061 96.4474 104.154 96.7308 104.154H113.91C114.799 104.154 115.26 103.094 114.655 102.443L20.102 0.857515Z" fill="#FFAA19"/>
</svg>
