<svg width="496" height="104" viewBox="0 0 496 104" fill="none" xmlns="http://www.w3.org/2000/svg">
<path d="M318.613 71.9856L291.631 2.49524C291.407 1.9183 290.852 1.53818 290.233 1.53818H280.358C279.74 1.53818 279.184 1.9179 278.96 2.49441L241.064 99.923C240.682 100.906 241.407 101.967 242.462 101.967H252.911C253.532 101.967 254.088 101.584 254.311 101.005L265.603 71.6055C265.678 71.4123 265.863 71.2848 266.07 71.2848H303.982C304.189 71.2848 304.374 71.4114 304.449 71.6037L315.874 101.01C316.098 101.587 316.653 101.967 317.272 101.967H320.113H328.063H329.627C330.456 101.967 331.127 101.295 331.127 100.467V41.3897C331.127 36.1011 331.037 31.0377 330.856 26.1995C330.856 26.1994 330.856 26.1994 330.856 26.1993L318.613 71.9856ZM318.613 71.9856V3.44456C318.613 2.61613 319.285 1.94456 320.113 1.94456H336.98C337.499 1.94456 337.98 2.21232 338.254 2.65267L368.355 51.0768L398.996 2.64262C399.271 2.20801 399.749 1.94456 400.263 1.94456H417C417.828 1.94456 418.5 2.61613 418.5 3.44456V100.467C418.5 101.295 417.828 101.967 417 101.967H406.673C405.845 101.967 405.173 101.295 405.173 100.467V40.5769C405.173 35.7377 405.286 30.9659 405.512 26.2617C405.713 22.088 405.896 18.5908 406.061 15.7704L373.814 69.2414C373.543 69.6915 373.056 69.9667 372.53 69.9667H363.369C362.839 69.9667 362.349 69.6879 362.079 69.2329L330.277 15.7091L318.613 71.9856ZM173.875 95.9034L173.875 95.9031C180.422 90.8779 183.689 83.8843 183.689 74.9841C183.689 69.7267 182.615 65.339 180.431 61.8529C178.306 58.3439 175.197 55.3341 171.124 52.8172L171.122 52.8159C167.023 50.3106 162.069 48.0169 156.266 45.9315C150.952 43.995 146.737 42.1325 143.611 40.346C140.495 38.5657 138.313 36.6086 137.016 34.491L137.016 34.491L137.012 34.4847C135.676 32.3716 134.99 29.6938 134.99 26.4212C134.99 22.2231 136.491 18.8905 139.485 16.3734L139.486 16.373C142.521 13.8148 147.059 12.4946 153.184 12.4946C157.387 12.4946 161.5 13.0087 165.523 14.0368L165.523 14.0369L165.529 14.0384C167.356 14.48 168.294 14.7672 169.069 15.0759C169.566 15.2741 169.991 15.478 170.544 15.7435C170.873 15.9011 171.246 16.0805 171.707 16.2933C172.501 16.6594 173.428 16.2617 173.726 15.4503L176.964 6.62975C177.236 5.88772 176.886 5.05475 176.151 4.74293C172.74 3.29539 170.013 2.46379 168.4 2.09274C163.842 1.04454 158.86 0.522217 153.455 0.522217C140.529 0.522217 131.158 4.48714 125.481 12.5177C122.705 16.4048 121.325 21.0017 121.325 26.2857C121.325 34.057 123.476 40.265 127.829 44.8496L127.832 44.8533C132.194 49.3523 138.659 53.1107 147.188 56.1505C153.091 58.3588 157.739 60.3811 161.142 62.2167L161.146 62.219C164.533 64.0012 166.865 65.9801 168.201 68.1346C169.496 70.2507 170.158 72.8862 170.158 76.0677C170.158 80.8385 168.331 84.5944 164.668 87.386C160.997 90.1388 155.59 91.5522 148.375 91.5522C143.131 91.5522 138.046 90.9471 133.119 89.7379C128.882 88.6882 125.242 87.5568 122.196 86.3453C121.209 85.953 120.105 86.6658 120.105 87.7493V97.5138C120.105 98.0922 120.439 98.6284 120.978 98.8688C124.084 100.253 127.863 101.326 132.305 102.095L132.306 102.095C137.079 102.913 142.232 103.321 147.765 103.321C158.674 103.321 167.395 100.867 173.875 95.9034ZM281.294 29.9154L281.294 29.9155L281.299 29.9022C281.844 28.3101 282.502 26.1568 283.27 23.4455C283.754 21.8324 284.222 20.1875 284.674 18.5109C284.811 18.0026 285.512 18.0143 285.653 18.4855C285.795 18.9584 285.945 19.4613 286.103 19.9941L286.106 20.0034C286.784 22.1257 287.416 24.0902 288.003 25.8969C288.319 26.891 288.591 27.7282 288.818 28.4081L288.821 28.4181C289.047 29.051 289.229 29.5504 289.365 29.9152C289.366 29.9153 289.366 29.9155 289.366 29.9156L299.974 58.5711C300.095 58.8976 299.853 59.2447 299.505 59.2447H271.025C270.676 59.2447 270.434 58.8961 270.557 58.5692L281.294 29.9154ZM491.682 47.1061L491.683 47.1045C494.159 42.2908 495.396 37.1098 495.396 31.5687C495.396 22.1974 492.396 14.8898 486.35 9.71951C480.301 4.50149 470.717 1.94456 457.712 1.94456H432.5C431.672 1.94456 431 2.61613 431 3.44456V100.467C431 101.295 431.672 101.967 432.5 101.967H442.962C443.791 101.967 444.462 101.295 444.462 100.467V63.928C444.462 63.6519 444.686 63.428 444.962 63.428H455.341C465.271 63.428 473.193 61.9558 479.07 58.9713L479.073 58.9699C484.925 55.9523 489.142 52.0019 491.682 47.1061ZM262.475 1.94456H188C187.172 1.94456 186.5 2.61613 186.5 3.44456V12.4169C186.5 13.2453 187.172 13.9169 188 13.9169H210.953C211.229 13.9169 211.453 14.1408 211.453 14.4169V100.467C211.453 101.295 212.124 101.967 212.953 101.967H223.415C224.244 101.967 224.915 101.295 224.915 100.467V14.4169C224.915 14.1408 225.139 13.9169 225.415 13.9169H258.577C259.174 13.9169 259.715 13.5625 259.953 13.0147L263.851 4.0423C264.281 3.05167 263.555 1.94456 262.475 1.94456ZM444.962 13.5783H456.628C465.255 13.5783 471.511 15.1542 475.491 18.2157C479.449 21.2602 481.459 25.8598 481.459 32.1106C481.459 39.3169 479.197 44.3223 474.775 47.2713C470.291 50.2167 463.387 51.7266 453.987 51.7266H444.962C444.686 51.7266 444.462 51.5027 444.462 51.2266V14.0783C444.462 13.8021 444.686 13.5783 444.962 13.5783Z" fill="#1E2022" stroke="#1E2022"/>
<path d="M109.05 1.67008C109.604 1.00762 109.133 4.67466e-05 108.27 4.67466e-05H91.8103C91.506 4.67466e-05 91.2176 0.136303 91.0243 0.371429L68.5374 27.7274C68.2134 28.1216 68.2314 28.6947 68.5795 29.0677L77.0629 38.1595C77.4803 38.6068 78.1952 38.5873 78.5876 38.1178L109.05 1.67008ZM20.102 0.324312C19.9095 0.117511 19.6397 4.67466e-05 19.3572 4.67466e-05H2.34163C1.45193 4.67466e-05 0.964642 1.03351 1.57173 1.68391C9.14591 9.79848 41.7181 44.6946 46.6662 49.9971C47.0207 50.377 47.0311 50.9128 46.6913 51.3058C41.9057 56.8416 10.0574 93.6785 2.8917 101.967C2.32181 102.626 2.81524 103.62 3.68659 103.62H20.0809C20.3765 103.62 20.6378 103.515 20.8311 103.291C23.9283 99.7073 51.3445 67.9847 56.3647 62.1675C56.7612 61.708 57.4521 61.6968 57.8647 62.1418C63.2009 67.897 92.8178 99.8753 96.0078 103.32C96.2004 103.528 96.4474 103.62 96.7308 103.62H113.91C114.799 103.62 115.26 102.56 114.655 101.91L20.102 0.324312Z" fill="#FFAA19"/>
</svg>
